<svg xmlns="http://www.w3.org/2000/svg" height="1024" preserveAspectRatio="none" style="display: block;" version="1.1" viewBox="0 0 2048 2048" width="1024">
<path d="M 0 0 L 2048 0 L 2048 2048 L 0 2048 L 0 0 z" fill="rgb(255,255,255)" transform="translate(0,0)"></path>
<path d="M 1721.29 291.326 C 1724.52 290.839 1727.83 290.973 1731.01 291.722 C 1737.55 293.252 1742.47 296.07 1747.36 300.658 C 1766.24 318.37 1757.5 339.554 1751.89 360.933 C 1738.4 412.292 1722.68 463.04 1704.77 513.034 C 1688.34 560.118 1670.32 613.054 1638.86 652.229 C 1623.67 671.491 1603.4 686.122 1580.34 694.47 C 1561.43 701.346 1550.61 701.27 1533.18 705.775 C 1504.71 713.132 1475.36 739.4 1455.93 760.546 C 1430.79 787.905 1427.65 808.84 1410.44 840.083 C 1395.76 866.345 1375.96 888.709 1354.87 909.868 C 1331.27 933.543 1329.5 944.037 1294.11 933.683 C 1283.47 942.95 1275.5 951.987 1265.64 962.027 C 1254.27 973.599 1242.59 985.069 1231.09 996.526 L 1067.25 1162 C 978.908 1250.16 891.32 1339.08 804.497 1428.74 C 743.068 1490.63 682.072 1552.96 621.515 1615.71 C 581.455 1656.47 540.537 1696.64 500.74 1737.84 C 465.717 1774.11 445.542 1753.26 418.071 1723.67 C 409.8 1714.76 399.162 1704.64 390.5 1696.02 L 326.104 1631.08 C 317.568 1622.44 308.202 1614.29 300.063 1605.34 C 287.507 1591.54 287.225 1570.77 300.415 1557.37 C 322.019 1535.43 343.719 1513.78 365.711 1492.32 L 471.416 1389.36 L 802.471 1065.44 L 1039.99 832.125 C 1053.76 818.889 1067.32 805.445 1080.68 791.8 C 1093.3 778.719 1105.52 764.913 1119.46 753.267 C 1105.18 721.222 1121.49 713.658 1140.94 693.352 C 1178.06 654.604 1223.63 634.589 1268.07 606.92 C 1301.82 585.899 1330.45 552.086 1346.49 515.87 C 1348.96 510.3 1348.34 496.989 1349.56 490.847 C 1356.37 453.596 1381.12 420.4 1411.46 398.555 C 1436.31 381.981 1468.77 370.273 1496.32 359.011 C 1567.91 329.741 1644.69 303.444 1721.29 291.326 z" fill="#1A2332" transform="translate(0,0)"></path>
<path d="M 1164.35 816.902 C 1186.42 837.874 1210.91 864.325 1233.28 886.459 C 1208.51 910.132 1183.29 936.557 1159.17 961.128 L 1070.04 1051.02 L 699.583 1426.06 C 685.845 1439.81 673.524 1454.09 660.219 1468.02 C 639.934 1488.93 619.326 1509.53 598.402 1529.81 L 591.849 1522.71 C 569.893 1499.35 541.069 1472.94 517.752 1449.2 C 524.56 1443.49 534.137 1433.23 540.722 1426.68 C 554.9 1412.48 569.225 1398.42 583.693 1384.51 L 756.281 1217.28 C 893.132 1084.67 1029.16 951.207 1164.35 816.902 z" fill="rgb(255,255,255)" transform="translate(0,0)"></path>
<path d="M 654.41 1352.18 C 673.935 1349.99 691.606 1363.87 694.106 1383.36 C 696.607 1402.84 683.014 1420.73 663.569 1423.55 C 650.709 1425.41 637.846 1420.19 629.914 1409.9 C 621.983 1399.61 620.216 1385.84 625.292 1373.88 C 630.367 1361.92 641.497 1353.62 654.41 1352.18 z" fill="#1A2332" transform="translate(0,0)"></path>
<path d="M 803.255 1207.76 C 822.651 1206.59 839.391 1221.22 840.821 1240.6 C 842.252 1259.97 827.842 1276.91 808.484 1278.59 C 795.733 1279.7 783.371 1273.86 776.127 1263.31 C 768.882 1252.76 767.876 1239.13 773.492 1227.63 C 779.109 1216.13 790.479 1208.54 803.255 1207.76 z" fill="#1A2332" transform="translate(0,0)"></path>
<path d="M 961.221 1049.6 C 980.32 1048.34 996.931 1062.55 998.635 1081.62 C 1000.34 1100.68 986.512 1117.62 967.493 1119.76 C 954.791 1121.2 942.308 1115.64 934.876 1105.24 C 927.443 1094.84 926.227 1081.23 931.697 1069.68 C 937.167 1058.12 948.466 1050.44 961.221 1049.6 z" fill="#1A2332" transform="translate(0,0)"></path>
<path d="M 1109.37 895.397 C 1128.19 890.303 1147.56 901.511 1152.52 920.368 C 1157.48 939.225 1146.14 958.515 1127.25 963.343 C 1108.54 968.124 1089.49 956.916 1084.57 938.246 C 1079.66 919.577 1090.73 900.441 1109.37 895.397 z" fill="#1A2332" transform="translate(0,0)"></path>
<path d="M 1389.57 596.462 C 1414.12 603.216 1421.36 604.724 1446.42 600.48 C 1444.11 625.783 1445.93 634.954 1455.18 658.675 C 1424.49 677.71 1380.7 728.652 1363.89 760.539 C 1342.48 801.149 1340.4 817.692 1304.03 851.561 C 1299.15 845.495 1292.72 839.002 1287.32 833.262 L 1197.92 744.079 C 1225.11 714.075 1254.57 706.341 1285.56 688.034 C 1318.43 668.621 1368.79 627.824 1389.57 596.462 z" fill="rgb(255,255,255)" transform="translate(0,0)"></path>
<path d="M 464.747 1501.63 C 467.164 1502.68 538.423 1573.94 546.578 1581.7 C 521.758 1608.56 492.368 1637.63 466.249 1663.34 C 463.586 1661.48 448.401 1645.93 445.322 1642.91 C 424.82 1622.87 404.524 1602.63 384.439 1582.18 C 410.931 1554.65 438.523 1529.11 464.747 1501.63 z" fill="rgb(255,255,255)" transform="translate(0,0)"></path>
<path d="M 1660.68 384.171 L 1663.34 384.251 C 1665.03 389.017 1639.79 460.368 1636.14 470.777 C 1615.99 464.341 1599.5 466.077 1579.46 471.779 C 1579.2 470.164 1580.12 458.83 1580.29 456.918 C 1582.14 437.167 1580.22 428.429 1572.63 410.457 C 1601.43 399.945 1630.83 391.168 1660.68 384.171 z" fill="rgb(255,255,255)" transform="translate(0,0)"></path>
<path d="M 1584.02 541.185 C 1588.55 540.894 1594.51 540.234 1598.77 542.017 C 1614.31 548.519 1605.02 572.059 1599.23 582.776 C 1586.83 605.747 1568.85 619.756 1544 627.402 C 1508.34 633.314 1520.17 599.651 1531.27 581.117 C 1542.74 561.96 1561.97 546.329 1584.02 541.185 z" fill="rgb(255,255,255)" transform="translate(0,0)"></path>
<path d="M 1489.43 442.265 C 1529.66 439.88 1496.83 516.667 1441.7 528.519 C 1397.04 531.045 1437.09 450.224 1489.43 442.265 z" fill="rgb(255,255,255)" transform="translate(0,0)"></path>
<metadata><recraft-signature>{"signed_by": "recraft", "signature_b64": "NErjBU8gxIpFOumZVmyA+YY+qvTPusU9tNotttyFZ14b9OeCSFbgSsZO1FFThR28vVs50h9rGyjnSpMwoCTxDQ==", "signing_algo": "Ed25519", "generation_timestamp": 1777454656, "identifier": "d8ea575c-5baa-40fb-985a-e7e1881cad93"}</recraft-signature></metadata></svg>