<svg xmlns="http://www.w3.org/2000/svg" height="1024" preserveAspectRatio="none" style="display: block;" version="1.1" viewBox="0 0 2048 2048" width="1024">
<path d="M 0 0 L 2048 0 L 2048 2048 L 0 2048 L 0 0 z" fill="rgb(255,255,255)" transform="translate(0,0)"></path>
<path d="M 1009.6 401.22 C 1035.45 398.599 1079.95 415.104 1104.64 425.06 C 1134.89 436.929 1163.96 451.595 1191.49 468.867 C 1235.88 497.256 1285.64 544.925 1315.35 588.456 C 1340.22 584.985 1369.47 578.971 1394.66 578.448 C 1421.43 577.892 1485.63 574.635 1504.89 593.799 C 1532.15 620.917 1559.51 655.918 1579.38 688.795 C 1726.96 932.945 1684.33 1230.3 1495.01 1437.89 C 1399.9 1541.11 1273.29 1609.92 1134.95 1633.59 C 1100.48 1639.55 1074.61 1641.3 1040.02 1642.92 C 988.624 1643.61 944.572 1641.56 894.557 1630.85 C 725.759 1595.34 578.031 1494.12 483.983 1349.52 C 391.467 1206.07 358.979 1041.67 395.18 874.175 C 413.932 788.509 451.813 708.193 505.989 639.235 C 523.005 617.14 537.367 592.92 567.908 592.005 C 608.309 590.794 646.481 595.117 685.861 603.864 C 776.384 482.466 865.016 435.198 1009.6 401.22 z" fill="#1A2332" transform="translate(0,0)"></path>
<path d="M 494.683 1057.44 C 518.076 1055.85 554.309 1058.1 577.367 1061.47 C 736.398 1084.32 875.111 1181.37 951.066 1322.95 C 959.514 1339.05 966.54 1354.41 973.369 1371.19 C 981.003 1389.95 983.082 1410.54 992.927 1428.03 C 997.266 1435.74 1011.74 1442.26 1020.32 1442.88 C 1057.69 1444.82 1061.87 1415.46 1070.74 1388.91 C 1074.06 1378.91 1077.74 1369.03 1081.77 1359.29 C 1113.26 1283 1163.66 1215.98 1228.21 1164.56 C 1296.16 1110.58 1386.57 1071.52 1472.99 1061.53 C 1512.7 1057.24 1552.77 1057.54 1592.4 1062.44 C 1587.89 1109.14 1576.58 1149.65 1561.06 1193.73 C 1536.8 1258.46 1501.51 1318.5 1456.74 1371.17 C 1360.31 1485.48 1222.26 1556.6 1073.2 1568.74 C 915.781 1581.87 765.429 1531.81 646.644 1428.39 C 542.485 1337.69 467.011 1198.57 455.741 1060.74 C 468.724 1058.84 481.592 1058.25 494.683 1057.44 z" fill="rgb(255,255,255)" transform="translate(0,0)"></path>
<path d="M 1394.15 651.417 C 1416.37 649.783 1436.26 650.98 1458.31 652.808 C 1470.19 663.647 1486.56 684.601 1496.39 697.585 C 1546.14 763.301 1576.95 841.477 1589.27 922.764 C 1592.6 944.67 1594.26 967.142 1595.87 989.221 C 1524.8 982.728 1474.05 983.424 1403.53 1000.43 C 1408.63 965.489 1417.15 939.93 1441.24 912.56 C 1447.09 905.909 1456.41 899.252 1461.61 892.665 C 1467.55 885.059 1470.12 875.355 1468.73 865.806 C 1467.32 856.046 1461.88 847.326 1453.73 841.778 C 1418.01 817.174 1378.22 873.505 1361.27 899.496 C 1343.68 874.448 1301.12 833.385 1268.79 832.228 C 1259.06 831.799 1249.58 835.378 1242.56 842.13 C 1235.77 848.637 1232.02 857.691 1232.21 867.093 C 1232.79 892.211 1252.22 895.009 1268.55 905.41 C 1306.96 929.881 1329.12 978.544 1329.08 1023.39 C 1316.89 1027.86 1306.3 1032.62 1294.46 1037.92 C 1201.95 1081.11 1122.82 1148.46 1065.41 1232.88 C 1048.44 1258.32 1038.59 1278.97 1024.17 1305.42 C 1013.7 1284.07 1001.94 1263.36 988.973 1243.42 C 983.961 1235.85 970.829 1218.08 967.815 1209.92 C 966.596 1202.88 965.782 1195.98 965.075 1188.86 C 946.22 999.207 1047.44 809.943 1208.89 711.576 C 1265.26 677.233 1328.55 657.173 1394.15 651.417 z" fill="rgb(255,255,255)" transform="translate(0,0)"></path>
<path d="M 580.56 663.458 C 724.749 658.871 877.482 762.423 955.594 878.432 C 948.315 894.942 940.18 911.192 933.305 927.862 C 905.586 995.074 891.234 1059.33 890.858 1132.07 C 838.477 1086.56 790.969 1054.4 726.239 1027.88 C 712.966 1022.44 693.818 1014.25 680.089 1011.36 C 684.156 980.31 695.078 953.415 714.97 929.341 C 720.912 921.712 728.75 914.55 736.836 909.248 C 748.518 901.589 764.103 897.152 769.13 882.808 C 771.284 877.019 772.784 870.078 771.648 863.83 C 766.192 833.818 739.756 826.151 715.211 838.602 C 684.853 854.002 664.849 875.183 646.086 901.974 C 630.714 876.83 599.608 826.873 563.567 836.306 C 554.139 838.767 546.142 845.004 541.46 853.55 C 538.3 859.411 536.865 866.047 537.321 872.69 C 538.762 894.258 553.08 897.92 565.959 911.342 C 586.505 932.753 595.893 964.1 603.871 991.838 C 547.258 983.731 512.524 981.046 454.348 987.157 C 458.206 880.65 492.065 780.264 555.634 694.012 C 560.78 687.029 574.031 668.489 580.56 663.458 z" fill="rgb(255,255,255)" transform="translate(0,0)"></path>
<path d="M 1014.51 473.188 C 1022.7 472.141 1049.76 482.56 1058.8 485.376 C 1136.6 509.611 1188.67 553.386 1242.51 612.265 C 1130.51 665.848 1071.31 712.896 996.415 812.375 C 974.416 782.475 949.304 754.997 921.5 730.402 C 918.609 727.987 915.088 724.56 912.239 721.951 C 921.644 711.787 935.486 696.652 948.355 691.466 C 969.083 683.113 993.481 676.671 993.722 648.111 C 993.791 637.592 989.488 627.517 981.84 620.294 C 964.761 604.309 945.539 611.409 927.407 619.72 C 896.385 633.94 876.424 653.148 854.326 678.193 C 819.028 657.362 798.113 642.519 758.318 626.953 C 811.735 560.279 883.816 511.042 965.352 485.533 C 981.761 480.339 997.731 476.928 1014.51 473.188 z" fill="rgb(255,255,255)" transform="translate(0,0)"></path>
<metadata><recraft-signature>{"signed_by": "recraft", "signature_b64": "e7dsWkhL/PmOi1G3ze2lYlX+/JDhVLDfSvp0xJJMmdeROmgXn4QEeBHUwWRYlkT2ywn4WrNUuVGSrjPQqPCuAA==", "signing_algo": "Ed25519", "generation_timestamp": 1777454502, "identifier": "1bef43ea-31d2-4c05-978c-e902816c66f5"}</recraft-signature></metadata></svg>