<svg xmlns="http://www.w3.org/2000/svg" height="1024" preserveAspectRatio="none" style="display: block;" version="1.1" viewBox="0 0 2048 2048" width="1024">
<path d="M 0 0 L 2048 0 L 2048 2048 L 0 2048 L 0 0 z" fill="rgb(255,255,255)" transform="translate(0,0)"></path>
<path d="M 940.206 311.351 C 1019.1 305.145 1057.88 404.712 1001.62 456.673 C 984.396 471.948 965.628 479.78 955.922 501.606 C 937.571 542.875 941.883 568.07 991.432 573.215 C 995.488 573.636 1009.05 577.475 1013.76 578.727 C 1047.05 587.602 1079.45 599.524 1110.56 614.341 C 1235.12 673.418 1342.1 783.167 1388.68 913.916 C 1434.69 918.853 1466.46 921.798 1511.64 937.947 C 1621.63 977.26 1708.21 1068.54 1732.67 1183.96 C 1747.69 1254.87 1737.28 1340.7 1711.98 1408.66 C 1676.18 1503.2 1606.69 1581.17 1516.87 1627.56 C 1506.82 1632.8 1496.53 1637.57 1486.04 1641.85 C 1466.41 1649.77 1440.1 1656.29 1429.64 1676.78 C 1417.96 1699.62 1410.27 1720.1 1385 1731.29 C 1353.59 1745.21 1312.14 1735.03 1292.94 1705.63 C 1274.88 1675.31 1277.55 1664.98 1241.68 1651.06 C 1227.43 1645.14 1216.21 1641.06 1201.97 1634.15 C 1148.78 1608.31 1102.11 1570.8 1065.43 1524.42 C 1021.98 1540.57 976.834 1551.74 930.863 1557.72 C 783.719 1576.5 626.036 1537.3 508.594 1445.76 C 401.933 1362.62 329.738 1245.67 312.879 1110.72 C 306.616 1058.23 309.899 1005.03 322.571 953.703 C 361.361 792.2 478.578 665.951 631.249 603.386 C 655.682 593.373 678.36 585.731 704.04 578.093 C 719.96 573.358 756.035 569.783 767.895 561.012 C 777.47 553.93 776.294 519.174 778.019 504.933 C 779.328 493.835 781.384 482.838 784.175 472.017 C 790.925 446.192 804.736 416.361 821.239 395.343 C 846.073 363.714 898.763 316.421 940.206 311.351 z" fill="#1A2332" transform="translate(0,0)"></path>
<path d="M 942.483 389.795 C 946.488 391.262 944.828 390.125 947.639 393.369 C 948.652 400.791 942.645 404.492 937.144 408.238 C 870.85 453.377 839.526 553.872 900.752 616.497 C 929.588 645.992 958.571 646.448 996.131 656.731 C 1020.83 663.399 1045.01 671.847 1068.49 682.008 C 1153.51 719.953 1225.47 782.105 1275.37 860.702 C 1286.95 878.971 1296.37 895.187 1304.3 915.422 C 1169.28 929.161 1045.9 993.278 994.514 1126.04 C 963.813 1206.3 961.19 1294.59 987.073 1376.53 C 996.796 1408.37 1005.63 1427.26 1018.91 1457.19 C 974.285 1472.24 927.793 1481.03 880.758 1483.3 C 844.259 1485.6 797.043 1481.92 761.016 1475.33 C 634.169 1452.14 526.956 1381.86 454.691 1274.61 C 398.191 1190.87 376.858 1088.28 395.289 988.952 C 410.15 913.089 444.609 849.589 495.746 791.946 C 549.585 731.255 615.801 690.861 692.532 664.706 C 709.103 659.2 725.942 654.54 742.986 650.743 C 766.484 645.293 791.122 642.289 811.221 628.519 C 835.601 611.817 852.78 584.644 854.102 554.85 C 854.934 536.11 852.708 525.109 856.611 505.893 C 868.498 447.375 896.057 421.651 942.483 389.795 z" fill="rgb(255,255,255)" transform="translate(0,0)"></path>
<path d="M 468.499 1000.14 C 489.579 999.9 490.159 1013.93 489.727 1031 C 485.867 1183.61 607.521 1308.85 747.373 1350.49 C 758.916 1354.49 779.661 1354.3 783.375 1368.79 C 786.856 1382.38 780.726 1390.22 768.509 1394.25 C 748.814 1394.98 688.276 1370.17 668.955 1360.59 C 547.092 1300.13 451.892 1178.91 452.362 1038.75 C 452.421 1021.26 448.462 1006.46 468.499 1000.14 z" fill="#1A2332" transform="translate(0,0)"></path>
<path d="M 1327.18 991.5 C 1337.65 990.425 1349.06 991.002 1359.6 990.767 C 1484.08 988 1615.07 1054.45 1649.11 1182.28 C 1683.27 1310.58 1626.25 1462.36 1515.7 1537.11 C 1501.83 1546.58 1487.1 1554.72 1471.71 1561.43 C 1428.82 1579.98 1388.79 1587.84 1363.04 1632.3 C 1360.49 1637 1356.6 1648.23 1352.86 1650.26 C 1349.65 1647.29 1344.07 1636.25 1341.7 1632 C 1319.18 1591.63 1276.78 1577.73 1236.66 1561.35 C 1215.31 1552.64 1188.92 1534.9 1171.12 1520.03 C 1102 1463.15 1058.67 1380.83 1050.91 1291.65 C 1046.44 1240.26 1050.42 1196.22 1070.84 1148.09 C 1116.2 1041.17 1218.77 1000.6 1327.18 991.5 z" fill="rgb(255,255,255)" transform="translate(0,0)"></path>
<path d="M 1213.8 1143.21 C 1222.63 1142.78 1226.98 1142.88 1236.21 1145.42 C 1267.1 1153.91 1288.27 1195.94 1271.18 1224.42 C 1266.37 1232.43 1258.16 1235.18 1249.21 1236.99 C 1187.13 1238.35 1157.93 1158.46 1213.8 1143.21 z" fill="#1A2332" transform="translate(0,0)"></path>
<path d="M 1214.91 1333.22 C 1228.39 1332.59 1239.06 1334.23 1250.85 1341.91 C 1264.23 1350.53 1273.52 1364.23 1276.58 1379.84 C 1281.08 1404.07 1272.59 1420.56 1248.03 1424.99 C 1186.42 1424.7 1158.08 1345.02 1214.91 1333.22 z" fill="#1A2332" transform="translate(0,0)"></path>
<path d="M 1486.66 1144.38 C 1494.38 1144.5 1504.12 1145.76 1509.72 1150.83 C 1537.29 1175.8 1516.89 1221.12 1485.97 1232.51 C 1478.66 1235.2 1474.69 1235.75 1467.53 1236.6 C 1423.49 1238.68 1423.62 1192.01 1444.69 1165.67 C 1455.69 1151.92 1469.16 1146.11 1486.66 1144.38 z" fill="#1A2332" transform="translate(0,0)"></path>
<path d="M 1485.7 1333.33 C 1538.41 1329.16 1537.32 1411.24 1472.05 1423.94 C 1462.41 1424.67 1451.95 1424.63 1444.05 1418.55 C 1424.55 1403.56 1430.54 1372.44 1444.23 1355.66 C 1456.31 1340.86 1467.56 1335.47 1485.7 1333.33 z" fill="#1A2332" transform="translate(0,0)"></path>
<metadata><recraft-signature>{"signed_by": "recraft", "signature_b64": "BD8wHCaEPRf+e0m5coEszAKRA5B4Y9d8PcCqx+Pb4GS+Cy9ugLVqLEDAPqeLwpmejqXQnX/MW6ZVsdcxCrPWBw==", "signing_algo": "Ed25519", "generation_timestamp": 1777454788, "identifier": "be393a43-bc25-48ae-8ef4-3e870bf7025c"}</recraft-signature></metadata></svg>