<svg xmlns="http://www.w3.org/2000/svg" height="1024" preserveAspectRatio="none" style="display: block;" version="1.1" viewBox="0 0 2048 2048" width="1024">
<path d="M 0 0 L 2048 0 L 2048 2048 L 0 2048 L 0 0 z" fill="rgb(255,255,255)" transform="translate(0,0)"></path>
<path d="M 1415.58 261.134 C 1444.94 259.22 1454.58 276.886 1466.18 300.449 C 1484.42 337.498 1488.7 377.121 1487.79 417.864 C 1494.19 414.574 1500.71 411.511 1507.33 408.682 C 1532.35 398.08 1602.1 375.143 1625.78 385.408 C 1634.52 389.191 1641.29 396.446 1644.46 405.429 C 1655.25 435.799 1618.62 512.505 1604.28 540.85 C 1633.74 545.302 1670.37 556.162 1693.53 576.299 C 1708.44 589.265 1707.95 614.778 1693.28 628.103 C 1666.82 652.14 1642.48 623.437 1615.27 616.002 C 1596.21 610.792 1583.13 609.267 1563.19 608.446 C 1554.73 620.534 1536.52 640.129 1526.19 651.702 C 1556.41 653.274 1606.49 662.108 1632.77 680.12 C 1639.55 684.771 1644.37 695.644 1644.67 703.896 C 1645.52 727.247 1620.1 759.047 1605.34 774.805 C 1561.95 821.093 1516.02 844.484 1453.94 854.28 C 1431.76 857.78 1417.14 860.594 1394.17 861.445 C 1421.71 937.538 1425.48 995.66 1384.75 1068.83 C 1329.4 1168.25 1225.39 1218.31 1132.31 1275.74 C 1080.82 1307.51 1030.96 1341.85 982.923 1378.63 C 939.314 1411.82 895.852 1451.77 854.756 1487.99 C 769.048 1563.55 686.799 1640.48 592.907 1706.04 C 544.453 1739.26 436.084 1808.5 376.808 1782.97 C 362.626 1777.02 351.499 1765.52 346.016 1751.15 C 342.001 1740.54 341.285 1727.31 343.456 1716.21 C 349.539 1686.62 363.309 1657.23 376.464 1630.15 C 423.227 1533.92 483.532 1445.37 542.821 1356.61 C 551.974 1342.91 561.418 1329.35 570.173 1315.39 C 607.566 1255.79 642.23 1194.51 674.058 1131.76 C 703.037 1073.31 730.321 1006.16 753.302 945.06 C 767.579 904.372 779.609 864.034 796.301 824.213 C 841.269 716.936 936.007 614.127 1059.73 611.048 C 1100.74 610.027 1137.09 622.01 1174.52 638.508 C 1174.23 636.779 1173.97 635.045 1173.75 633.306 C 1163.17 552.074 1178.19 456.664 1230.14 391.947 C 1242.76 376.22 1265.45 346.606 1285.73 345.617 C 1296.58 345.087 1306.98 347.399 1314.52 355.061 C 1344.53 385.564 1374.43 447.001 1377.39 487.854 C 1387.81 478.867 1398.51 470.206 1409.47 461.883 C 1419.03 421.406 1422.29 379.433 1405.95 340.159 C 1397.76 320.499 1379.44 302.616 1391.03 279.688 C 1396.08 269.696 1405.35 264.62 1415.58 261.134 z" fill="#1A2332" transform="translate(0,0)"></path>
<path d="M 1051.55 683.391 C 1062.26 681.715 1086.74 683.792 1097.46 686.969 C 1212.36 721.009 1368.4 864.837 1338.19 995.2 C 1318.38 1080.7 1215.52 1140.26 1144.64 1182.67 C 1122.83 1171.32 1102.16 1164.26 1081.49 1148.46 C 1071.65 1140.94 1062.55 1128.78 1053.22 1122.6 C 1045.9 1117.78 1036.94 1116.1 1028.37 1117.94 C 1019.14 1119.89 1010.65 1125.72 1005.7 1133.77 C 1000.91 1141.72 999.647 1151.3 1002.22 1160.22 C 1009.98 1187.64 1050.83 1213.73 1074.32 1227.04 C 1022.99 1256.82 961.191 1301.47 916.151 1339.07 C 899.244 1329.93 883.496 1321.32 868.691 1308.8 C 853.789 1296.2 845.408 1280.2 823.049 1283.7 C 813.425 1285.25 804.818 1290.58 799.137 1298.5 C 793.79 1305.85 790.635 1316.41 792.81 1325.11 C 798.761 1348.9 838.031 1375.66 857.379 1387.88 C 744.022 1486.81 618.413 1612.19 488.217 1685.91 C 464.351 1699.46 443.126 1709.37 416.747 1717.13 C 434.07 1670 459.421 1626.28 484.027 1582.69 C 523.618 1512.57 569.795 1447.09 614.426 1380.25 C 626.948 1397.37 657.063 1434.58 678.322 1438.01 C 688.146 1439.63 698.208 1437.24 706.258 1431.38 C 714.27 1425.67 719.554 1416.89 720.852 1407.13 C 721.712 1399.86 720.191 1392.51 716.518 1386.17 C 711.962 1378.39 694.525 1363.06 687.205 1355.32 C 675.676 1342.92 664.687 1330.03 654.267 1316.69 C 662.021 1303.03 671.132 1289.48 678.957 1275.69 C 706.647 1226.9 733.473 1178.67 756.233 1127.38 C 773.446 1146.87 800.733 1182.36 826.376 1189.9 C 851.21 1197.2 881.801 1162.86 865.134 1138.73 C 859.979 1131.27 853.907 1126.11 847.128 1120.18 C 823.795 1099.79 805.104 1076.1 788.103 1050.38 C 802.737 1017.56 815.954 984.123 827.715 950.166 C 837.667 921.106 844.947 894.899 856.002 865.393 C 881.504 896.172 915.281 931.67 952.345 947.49 C 981.053 958.056 1008.99 922.53 992.996 898.456 C 986.166 888.173 961.747 872.446 951.337 862.861 C 927.192 840.628 911.948 820.605 894.514 793.213 C 899.972 784.862 905.85 776.792 912.125 769.036 C 948.361 723.554 992.471 690.029 1051.55 683.391 z" fill="rgb(255,255,255)" transform="translate(0,0)"></path>
<path d="M 1561.4 464.107 L 1562.43 464.51 C 1561.46 469.763 1546.34 500.721 1543.2 506.604 C 1516.03 557.381 1477.26 602.096 1432.36 638.016 C 1400.7 663.342 1368.46 687.576 1338.04 714.415 C 1327.62 723.613 1317.88 731.677 1308.46 742.078 C 1303.3 735.473 1300.21 732.161 1294.17 726.487 L 1275.87 709.161 C 1349.92 613.43 1441.06 499.383 1561.4 464.107 z" fill="rgb(255,255,255)" transform="translate(0,0)"></path>
<path d="M 1284.4 437.741 C 1306.17 463.825 1313.08 521.03 1312.05 554.186 C 1291.63 577.078 1275.79 595.173 1257.21 619.655 L 1245.35 635.005 C 1238.58 561.491 1238.67 500.885 1284.4 437.741 z" fill="rgb(255,255,255)" transform="translate(0,0)"></path>
<path d="M 1481.41 721.424 C 1500.56 720.265 1534.98 724.684 1553.72 728.077 C 1518.83 765.087 1475.55 778.998 1426.77 786.046 C 1406.71 789.126 1377.98 792.36 1357.88 793.353 C 1373.38 775.476 1413.8 740.134 1435.32 729.65 C 1445.13 724.871 1470.25 722.26 1481.41 721.424 z" fill="rgb(255,255,255)" transform="translate(0,0)"></path>
<metadata><recraft-signature>{"signed_by": "recraft", "signature_b64": "V89SyTSpcSFxX1f3DTJPgfLKMflyi0O46HB+cq2LIQuQsEFni8VjQtW8W6R2B/5Vtw7cttikVHG503GiVZ8ZCw==", "signing_algo": "Ed25519", "generation_timestamp": 1777454745, "identifier": "d013c24c-1517-458c-a04b-d7db396fcb9d"}</recraft-signature></metadata></svg>